<svg xmlns="http://www.w3.org/2000/svg" xmlns:xlink="http://www.w3.org/1999/xlink" width="500" zoomAndPan="magnify" viewBox="0 0 375 374.999991" height="500" preserveAspectRatio="xMidYMid meet" version="1.0"><defs><g/></defs><g fill="#ffdf2b" fill-opacity="1"><g transform="translate(21.31958, 153.385875)"><g><path d="M 29.484375 -32.40625 C 28.523438 -33.445312 27.5 -34.242188 26.40625 -34.796875 C 25.3125 -35.359375 23.734375 -35.640625 21.671875 -35.640625 C 19.597656 -35.640625 18.0625 -35.335938 17.0625 -34.734375 C 16.070312 -34.140625 15.578125 -33.425781 15.578125 -32.59375 C 15.578125 -31.15625 16.851562 -30.140625 19.40625 -29.546875 L 29.3125 -26.984375 C 32.925781 -26.066406 35.648438 -24.460938 37.484375 -22.171875 C 39.316406 -19.878906 40.234375 -17.144531 40.234375 -13.96875 C 40.234375 -11.019531 39.457031 -8.453125 37.90625 -6.265625 C 36.351562 -4.078125 34.132812 -2.382812 31.25 -1.1875 C 28.363281 0 24.988281 0.59375 21.125 0.59375 C 16.75 0.59375 12.757812 -0.128906 9.15625 -1.578125 C 5.5625 -3.035156 3.066406 -4.9375 1.671875 -7.28125 C 1.472656 -7.675781 1.375 -7.972656 1.375 -8.171875 C 1.375 -8.578125 1.59375 -8.9375 2.03125 -9.25 L 8.171875 -13.484375 C 8.609375 -13.765625 9.007812 -13.90625 9.375 -13.90625 C 9.8125 -13.90625 10.171875 -13.726562 10.453125 -13.375 C 11.796875 -11.625 13.164062 -10.390625 14.5625 -9.671875 C 15.957031 -8.953125 17.804688 -8.59375 20.109375 -8.59375 C 22.335938 -8.59375 24.097656 -8.898438 25.390625 -9.515625 C 26.691406 -10.140625 27.34375 -10.988281 27.34375 -12.0625 C 27.34375 -12.8125 27.019531 -13.460938 26.375 -14.015625 C 25.738281 -14.578125 24.804688 -15 23.578125 -15.28125 L 14.5 -17.484375 C 10.914062 -18.359375 8.070312 -20 5.96875 -22.40625 C 3.863281 -24.820312 2.8125 -27.597656 2.8125 -30.734375 C 2.8125 -33.328125 3.566406 -35.707031 5.078125 -37.875 C 6.585938 -40.039062 8.734375 -41.75 11.515625 -43 C 14.304688 -44.257812 17.53125 -44.890625 21.1875 -44.890625 C 24.769531 -44.890625 28.09375 -44.300781 31.15625 -43.125 C 34.21875 -41.945312 36.425781 -40.382812 37.78125 -38.4375 C 38.0625 -38.082031 38.203125 -37.742188 38.203125 -37.421875 C 38.203125 -37.140625 38.0625 -36.878906 37.78125 -36.640625 L 31.28125 -31.9375 C 31.082031 -31.769531 30.863281 -31.6875 30.625 -31.6875 C 30.34375 -31.6875 29.960938 -31.925781 29.484375 -32.40625 Z M 29.484375 -32.40625 "/></g></g></g><g fill="#ffdf2b" fill-opacity="1"><g transform="translate(63.155131, 153.385875)"><g><path d="M 40.828125 -17.484375 C 40.828125 -10.960938 39.175781 -6.316406 35.875 -3.546875 C 32.570312 -0.785156 27.851562 0.59375 21.71875 0.59375 C 14.84375 0.59375 9.941406 -0.992188 7.015625 -4.171875 C 4.085938 -7.359375 2.625 -12.195312 2.625 -18.6875 L 2.625 -42.921875 C 2.625 -43.359375 2.722656 -43.691406 2.921875 -43.921875 C 3.117188 -44.160156 3.398438 -44.28125 3.765625 -44.28125 L 15.09375 -44.28125 C 15.8125 -44.28125 16.171875 -43.863281 16.171875 -43.03125 L 16.171875 -17.25 C 16.171875 -14.300781 16.738281 -12.171875 17.875 -10.859375 C 19.007812 -9.546875 20.628906 -8.890625 22.734375 -8.890625 C 24.804688 -8.890625 26.476562 -9.546875 27.75 -10.859375 C 29.03125 -12.171875 29.671875 -14.359375 29.671875 -17.421875 L 29.671875 -42.921875 C 29.671875 -43.828125 30.046875 -44.28125 30.796875 -44.28125 L 39.75 -44.28125 C 40.46875 -44.28125 40.828125 -43.863281 40.828125 -43.03125 Z M 40.828125 -17.484375 "/></g></g></g><g fill="#ffdf2b" fill-opacity="1"><g transform="translate(106.60205, 153.385875)"><g><path d="M 11.765625 -44.28125 C 16.492188 -44.28125 19.4375 -44.265625 20.59375 -44.234375 C 28.351562 -43.953125 34.222656 -41.847656 38.203125 -37.921875 C 42.179688 -34.003906 44.171875 -28.785156 44.171875 -22.265625 C 44.171875 -17.890625 43.273438 -14.03125 41.484375 -10.6875 C 39.691406 -7.34375 37.023438 -4.722656 33.484375 -2.828125 C 29.941406 -0.941406 25.625 0 20.53125 0 L 4.828125 0 C 4.234375 0 3.796875 -0.132812 3.515625 -0.40625 C 3.242188 -0.6875 3.109375 -1.148438 3.109375 -1.796875 L 3.109375 -42.796875 C 3.109375 -43.347656 3.222656 -43.734375 3.453125 -43.953125 C 3.691406 -44.171875 4.113281 -44.28125 4.71875 -44.28125 Z M 17.25 -34.921875 C 17.050781 -34.921875 16.898438 -34.859375 16.796875 -34.734375 C 16.703125 -34.617188 16.65625 -34.398438 16.65625 -34.078125 L 16.65625 -10.265625 C 16.65625 -9.910156 16.710938 -9.671875 16.828125 -9.546875 C 16.953125 -9.429688 17.171875 -9.375 17.484375 -9.375 L 17.90625 -9.375 C 21.84375 -9.375 24.835938 -10.394531 26.890625 -12.4375 C 28.941406 -14.488281 29.96875 -17.820312 29.96875 -22.4375 C 29.96875 -26.414062 29.191406 -29.378906 27.640625 -31.328125 C 26.085938 -33.285156 23.816406 -34.398438 20.828125 -34.671875 Z M 17.25 -34.921875 "/></g></g></g><g fill="#ffdf2b" fill-opacity="1"><g transform="translate(152.6152, 153.385875)"><g><path d="M 11.765625 -44.28125 C 16.492188 -44.28125 19.4375 -44.265625 20.59375 -44.234375 C 28.351562 -43.953125 34.222656 -41.847656 38.203125 -37.921875 C 42.179688 -34.003906 44.171875 -28.785156 44.171875 -22.265625 C 44.171875 -17.890625 43.273438 -14.03125 41.484375 -10.6875 C 39.691406 -7.34375 37.023438 -4.722656 33.484375 -2.828125 C 29.941406 -0.941406 25.625 0 20.53125 0 L 4.828125 0 C 4.234375 0 3.796875 -0.132812 3.515625 -0.40625 C 3.242188 -0.6875 3.109375 -1.148438 3.109375 -1.796875 L 3.109375 -42.796875 C 3.109375 -43.347656 3.222656 -43.734375 3.453125 -43.953125 C 3.691406 -44.171875 4.113281 -44.28125 4.71875 -44.28125 Z M 17.25 -34.921875 C 17.050781 -34.921875 16.898438 -34.859375 16.796875 -34.734375 C 16.703125 -34.617188 16.65625 -34.398438 16.65625 -34.078125 L 16.65625 -10.265625 C 16.65625 -9.910156 16.710938 -9.671875 16.828125 -9.546875 C 16.953125 -9.429688 17.171875 -9.375 17.484375 -9.375 L 17.90625 -9.375 C 21.84375 -9.375 24.835938 -10.394531 26.890625 -12.4375 C 28.941406 -14.488281 29.96875 -17.820312 29.96875 -22.4375 C 29.96875 -26.414062 29.191406 -29.378906 27.640625 -31.328125 C 26.085938 -33.285156 23.816406 -34.398438 20.828125 -34.671875 Z M 17.25 -34.921875 "/></g></g></g><g fill="#ffdf2b" fill-opacity="1"><g transform="translate(198.62835, 153.385875)"><g><path d="M 3.109375 -42.921875 C 3.109375 -43.828125 3.484375 -44.28125 4.234375 -44.28125 L 36.46875 -44.28125 C 37.1875 -44.28125 37.546875 -43.863281 37.546875 -43.03125 L 37.484375 -36.109375 C 37.484375 -35.035156 36.96875 -34.5 35.9375 -34.5 L 18.03125 -34.5 C 17.113281 -34.5 16.65625 -34.117188 16.65625 -33.359375 L 16.65625 -28.296875 C 16.65625 -27.890625 16.753906 -27.578125 16.953125 -27.359375 C 17.148438 -27.140625 17.410156 -27.03125 17.734375 -27.03125 L 28.46875 -27.03125 C 29.300781 -27.03125 29.71875 -26.632812 29.71875 -25.84375 L 29.71875 -18.4375 C 29.71875 -17.757812 29.363281 -17.421875 28.65625 -17.421875 L 17.609375 -17.421875 C 17.328125 -17.421875 17.097656 -17.34375 16.921875 -17.1875 C 16.742188 -17.03125 16.65625 -16.832031 16.65625 -16.59375 L 16.65625 -10.625 C 16.65625 -10.300781 16.703125 -10.078125 16.796875 -9.953125 C 16.898438 -9.835938 17.09375 -9.78125 17.375 -9.78125 L 36.765625 -9.78125 C 37.640625 -9.78125 38.078125 -9.40625 38.078125 -8.65625 L 38.078125 -1.3125 C 38.078125 -0.914062 37.957031 -0.597656 37.71875 -0.359375 C 37.476562 -0.117188 37.117188 0 36.640625 0 L 4.71875 0 C 4.113281 0 3.691406 -0.117188 3.453125 -0.359375 C 3.222656 -0.597656 3.109375 -0.976562 3.109375 -1.5 Z M 3.109375 -42.921875 "/></g></g></g><g fill="#ffdf2b" fill-opacity="1"><g transform="translate(238.673507, 153.385875)"><g><path d="M 41.421875 -44.28125 C 42.015625 -44.28125 42.3125 -43.945312 42.3125 -43.28125 L 42.3125 -1.078125 C 42.3125 -0.753906 42.179688 -0.492188 41.921875 -0.296875 C 41.671875 -0.0976562 41.347656 0 40.953125 0 L 32.765625 0 C 32.410156 0 32.125 -0.0546875 31.90625 -0.171875 C 31.6875 -0.296875 31.4375 -0.535156 31.15625 -0.890625 L 14.75 -23.15625 C 14.582031 -23.351562 14.4375 -23.429688 14.3125 -23.390625 C 14.195312 -23.359375 14.140625 -23.242188 14.140625 -23.046875 L 14.140625 -1.3125 C 14.179688 -0.832031 14.09375 -0.492188 13.875 -0.296875 C 13.65625 -0.0976562 13.269531 0 12.71875 0 L 4.59375 0 C 3.601562 0 3.109375 -0.394531 3.109375 -1.1875 L 3.109375 -42.921875 C 3.109375 -43.828125 3.546875 -44.28125 4.421875 -44.28125 L 14.140625 -44.28125 C 14.660156 -44.28125 15.050781 -44.210938 15.3125 -44.078125 C 15.570312 -43.941406 15.859375 -43.65625 16.171875 -43.21875 L 30.5 -23.28125 C 30.738281 -22.914062 30.957031 -22.734375 31.15625 -22.734375 C 31.351562 -22.734375 31.453125 -22.992188 31.453125 -23.515625 L 31.453125 -43.03125 C 31.453125 -43.863281 31.890625 -44.28125 32.765625 -44.28125 Z M 41.421875 -44.28125 "/></g></g></g><g fill="#ffdf2b" fill-opacity="1"><g transform="translate(284.089737, 153.385875)"><g/></g></g><g fill="#ffdf2b" fill-opacity="1"><g transform="translate(25.582432, 213.026154)"><g><path d="M 4.484375 0 C 4.078125 0 3.742188 -0.128906 3.484375 -0.390625 C 3.234375 -0.648438 3.109375 -0.957031 3.109375 -1.3125 L 3.109375 -42.734375 C 3.109375 -43.171875 3.242188 -43.535156 3.515625 -43.828125 C 3.796875 -44.128906 4.15625 -44.28125 4.59375 -44.28125 L 22.390625 -44.28125 C 28.585938 -44.28125 33.285156 -43.296875 36.484375 -41.328125 C 39.691406 -39.359375 41.296875 -36.445312 41.296875 -32.59375 C 41.296875 -30.476562 40.71875 -28.691406 39.5625 -27.234375 C 38.414062 -25.785156 36.390625 -24.390625 33.484375 -23.046875 C 33.398438 -23.003906 33.359375 -22.929688 33.359375 -22.828125 C 33.359375 -22.734375 33.398438 -22.664062 33.484375 -22.625 C 36.703125 -21.425781 38.988281 -20.007812 40.34375 -18.375 C 41.695312 -16.75 42.375 -14.644531 42.375 -12.0625 C 42.375 -7.957031 40.8125 -4.921875 37.6875 -2.953125 C 34.5625 -0.984375 29.78125 0 23.34375 0 Z M 23.34375 -26.984375 C 24.726562 -26.984375 25.835938 -27.359375 26.671875 -28.109375 C 27.515625 -28.867188 27.9375 -29.84375 27.9375 -31.03125 C 27.9375 -32.3125 27.457031 -33.347656 26.5 -34.140625 C 25.539062 -34.929688 24.347656 -35.328125 22.921875 -35.328125 L 18.03125 -35.328125 C 17.507812 -35.328125 17.148438 -35.238281 16.953125 -35.0625 C 16.753906 -34.882812 16.65625 -34.578125 16.65625 -34.140625 L 16.65625 -28.296875 C 16.65625 -27.816406 16.734375 -27.476562 16.890625 -27.28125 C 17.046875 -27.082031 17.304688 -26.984375 17.671875 -26.984375 Z M 23.046875 -8.953125 C 24.671875 -8.953125 25.953125 -9.410156 26.890625 -10.328125 C 27.828125 -11.242188 28.296875 -12.316406 28.296875 -13.546875 C 28.296875 -14.785156 27.835938 -15.800781 26.921875 -16.59375 C 26.003906 -17.382812 24.8125 -17.78125 23.34375 -17.78125 L 18.03125 -17.78125 C 17.507812 -17.78125 17.148438 -17.679688 16.953125 -17.484375 C 16.753906 -17.285156 16.65625 -16.96875 16.65625 -16.53125 L 16.65625 -10.265625 C 16.65625 -9.785156 16.734375 -9.445312 16.890625 -9.25 C 17.046875 -9.050781 17.304688 -8.953125 17.671875 -8.953125 Z M 23.046875 -8.953125 "/></g></g></g><g fill="#ffdf2b" fill-opacity="1"><g transform="translate(69.685818, 213.026154)"><g><path d="M 2.5625 0 C 2.25 0 1.992188 -0.109375 1.796875 -0.328125 C 1.597656 -0.546875 1.5 -0.851562 1.5 -1.25 C 1.5 -1.53125 1.554688 -1.847656 1.671875 -2.203125 L 16.109375 -42.921875 C 16.316406 -43.429688 16.535156 -43.785156 16.765625 -43.984375 C 17.003906 -44.179688 17.382812 -44.28125 17.90625 -44.28125 L 29.671875 -44.28125 C 30.140625 -44.28125 30.5625 -44.128906 30.9375 -43.828125 C 31.320312 -43.535156 31.613281 -43.148438 31.8125 -42.671875 L 46.140625 -2.03125 C 46.222656 -1.707031 46.265625 -1.46875 46.265625 -1.3125 C 46.265625 -0.957031 46.179688 -0.648438 46.015625 -0.390625 C 45.859375 -0.128906 45.617188 0 45.296875 0 L 33.609375 0 C 32.929688 0 32.492188 -0.335938 32.296875 -1.015625 L 29.96875 -7.875 C 29.84375 -8.15625 29.726562 -8.34375 29.625 -8.4375 C 29.53125 -8.539062 29.34375 -8.59375 29.0625 -8.59375 L 16.421875 -8.59375 C 15.941406 -8.59375 15.640625 -8.375 15.515625 -7.9375 L 13.078125 -0.890625 C 12.835938 -0.296875 12.359375 0 11.640625 0 Z M 26.078125 -18.734375 C 26.515625 -18.734375 26.734375 -18.9375 26.734375 -19.34375 C 26.734375 -19.414062 26.695312 -19.613281 26.625 -19.9375 L 23.046875 -30.140625 C 22.960938 -30.335938 22.835938 -30.4375 22.671875 -30.4375 C 22.515625 -30.4375 22.398438 -30.335938 22.328125 -30.140625 L 18.6875 -20 C 18.601562 -19.832031 18.5625 -19.632812 18.5625 -19.40625 C 18.5625 -18.957031 18.800781 -18.734375 19.28125 -18.734375 Z M 26.078125 -18.734375 "/></g></g></g><g fill="#ffdf2b" fill-opacity="1"><g transform="translate(117.369992, 213.026154)"><g><path d="M 1.671875 -42.921875 C 1.671875 -43.316406 1.800781 -43.640625 2.0625 -43.890625 C 2.320312 -44.148438 2.6875 -44.28125 3.15625 -44.28125 L 38.859375 -44.28125 C 39.335938 -44.28125 39.703125 -44.148438 39.953125 -43.890625 C 40.210938 -43.640625 40.34375 -43.316406 40.34375 -42.921875 L 40.34375 -35.8125 C 40.34375 -35.050781 39.90625 -34.671875 39.03125 -34.671875 L 28.46875 -34.671875 C 27.988281 -34.671875 27.75 -34.472656 27.75 -34.078125 L 27.75 -1.3125 C 27.75 -0.875 27.648438 -0.546875 27.453125 -0.328125 C 27.253906 -0.109375 26.976562 0 26.625 0 L 15.28125 0 C 14.5625 0 14.203125 -0.394531 14.203125 -1.1875 L 14.203125 -33.84375 C 14.203125 -34.394531 13.984375 -34.671875 13.546875 -34.671875 L 3.046875 -34.671875 C 2.128906 -34.671875 1.671875 -35.050781 1.671875 -35.8125 Z M 1.671875 -42.921875 "/></g></g></g><g fill="#ffdf2b" fill-opacity="1"><g transform="translate(159.384589, 213.026154)"><g><path d="M 1.671875 -42.921875 C 1.671875 -43.316406 1.800781 -43.640625 2.0625 -43.890625 C 2.320312 -44.148438 2.6875 -44.28125 3.15625 -44.28125 L 38.859375 -44.28125 C 39.335938 -44.28125 39.703125 -44.148438 39.953125 -43.890625 C 40.210938 -43.640625 40.34375 -43.316406 40.34375 -42.921875 L 40.34375 -35.8125 C 40.34375 -35.050781 39.90625 -34.671875 39.03125 -34.671875 L 28.46875 -34.671875 C 27.988281 -34.671875 27.75 -34.472656 27.75 -34.078125 L 27.75 -1.3125 C 27.75 -0.875 27.648438 -0.546875 27.453125 -0.328125 C 27.253906 -0.109375 26.976562 0 26.625 0 L 15.28125 0 C 14.5625 0 14.203125 -0.394531 14.203125 -1.1875 L 14.203125 -33.84375 C 14.203125 -34.394531 13.984375 -34.671875 13.546875 -34.671875 L 3.046875 -34.671875 C 2.128906 -34.671875 1.671875 -35.050781 1.671875 -35.8125 Z M 1.671875 -42.921875 "/></g></g></g><g fill="#ffdf2b" fill-opacity="1"><g transform="translate(201.399186, 213.026154)"><g><path d="M 3.109375 -42.921875 C 3.109375 -43.359375 3.207031 -43.691406 3.40625 -43.921875 C 3.601562 -44.160156 3.878906 -44.28125 4.234375 -44.28125 L 15.578125 -44.28125 C 16.296875 -44.28125 16.65625 -43.863281 16.65625 -43.03125 L 16.65625 -10.625 C 16.65625 -10.300781 16.703125 -10.078125 16.796875 -9.953125 C 16.898438 -9.835938 17.09375 -9.78125 17.375 -9.78125 L 35.328125 -9.78125 C 36.242188 -9.78125 36.703125 -9.40625 36.703125 -8.65625 L 36.703125 -1.3125 C 36.703125 -0.914062 36.570312 -0.597656 36.3125 -0.359375 C 36.0625 -0.117188 35.695312 0 35.21875 0 L 4.71875 0 C 4.113281 0 3.691406 -0.117188 3.453125 -0.359375 C 3.222656 -0.597656 3.109375 -0.976562 3.109375 -1.5 Z M 3.109375 -42.921875 "/></g></g></g><g fill="#ffdf2b" fill-opacity="1"><g transform="translate(239.773318, 213.026154)"><g><path d="M 3.109375 -42.921875 C 3.109375 -43.828125 3.484375 -44.28125 4.234375 -44.28125 L 36.46875 -44.28125 C 37.1875 -44.28125 37.546875 -43.863281 37.546875 -43.03125 L 37.484375 -36.109375 C 37.484375 -35.035156 36.96875 -34.5 35.9375 -34.5 L 18.03125 -34.5 C 17.113281 -34.5 16.65625 -34.117188 16.65625 -33.359375 L 16.65625 -28.296875 C 16.65625 -27.890625 16.753906 -27.578125 16.953125 -27.359375 C 17.148438 -27.140625 17.410156 -27.03125 17.734375 -27.03125 L 28.46875 -27.03125 C 29.300781 -27.03125 29.71875 -26.632812 29.71875 -25.84375 L 29.71875 -18.4375 C 29.71875 -17.757812 29.363281 -17.421875 28.65625 -17.421875 L 17.609375 -17.421875 C 17.328125 -17.421875 17.097656 -17.34375 16.921875 -17.1875 C 16.742188 -17.03125 16.65625 -16.832031 16.65625 -16.59375 L 16.65625 -10.625 C 16.65625 -10.300781 16.703125 -10.078125 16.796875 -9.953125 C 16.898438 -9.835938 17.09375 -9.78125 17.375 -9.78125 L 36.765625 -9.78125 C 37.640625 -9.78125 38.078125 -9.40625 38.078125 -8.65625 L 38.078125 -1.3125 C 38.078125 -0.914062 37.957031 -0.597656 37.71875 -0.359375 C 37.476562 -0.117188 37.117188 0 36.640625 0 L 4.71875 0 C 4.113281 0 3.691406 -0.117188 3.453125 -0.359375 C 3.222656 -0.597656 3.109375 -0.976562 3.109375 -1.5 Z M 3.109375 -42.921875 "/></g></g></g></svg>